# xmcd CD database file
#
# Track frame offsets:
#	150
#	24713
#	51483
#	76116
#	101895
#	119884
#	152237
#	175010
#	210942
#	233662
#	263953
#
# Disc length: 3741 seconds
#
# Revision: 0
# Processed by: cddbd v1.5.2PL0 Copyright (c) Steve Scherf et al.
# Submitted via: CDex 1.51
#
DISCID=930e9b0b
DTITLE=George Duke - In A Mellow TOne
DYEAR=2006
DGENRE=Jazz
TTITLE0=George Duke - In A Mellow Tone
TTITLE1=George Duke - For All We Know
TTITLE2=George Duke - Never Will I Marry
TTITLE3=George Duke - Spring Is Here
TTITLE4=George Duke - Sweet Baby
TTITLE5=George Duke - Down The Road
TTITLE6=George Duke - So Many Stars
TTITLE7=George Duke - So I'll Pretend
TTITLE8=George Duke - Quiet FIre
TTITLE9=George Duke - Just Because
TTITLE10=George Duke - I Loves You Porgy
EXTD=YEAR: 2006
EXTT0=
EXTT1=
EXTT2=
EXTT3=
EXTT4=
EXTT5=
EXTT6=
EXTT7=
EXTT8=
EXTT9=
EXTT10=
PLAYORDER=
